# xmcd
#
# Track frame offsets: 
#        183
#        13213
#        25190
#        40215
#        53138
#        65008
#        84600
#        96428
#        121228
#        130550
#        143913
#        161043
#        176903
#        201190
#        229868
#        248393
#
# Disc length: 3593 seconds
#
# Revision: 0
# Processed by: cddbd v1.5.2PL0 Copyright (c) Steve Scherf et al.
# Submitted via: ExactAudioCopy v0.99pb5
#
DISCID=dc0e0710
DTITLE=Various Artist - Vox 1992.00 Back From The Crossroads
DYEAR=1992
DGENRE=Blues
TTITLE0=Robert Johnson - Preaching Blues
TTITLE1=Big Joe Williams - Don't You Leave Me Here
TTITLE2=Blind Willie Johnson - Dark Was The Night
TTITLE3=Big Bill Broonzy - How You Want It Done
TTITLE4=Bukka White - Bukka's Jitterbug Swing
TTITLE5=Son House - Death Letter
TTITLE6=Dion - Don't Start Me Talkin'
TTITLE7=Van Morrison - In The Back Room
TTITLE8=The Rising Sons with Ry Cooder and Taj Mahal - Candy Man
TTITLE9=Taj Mahal - Statesboro Blues
TTITLE10=Spirit - Turn To The Right
TTITLE11=Johnny Winter - Walking By Myself
TTITLE12=Muddy Waters - Mannish Boy
TTITLE13=Gary Moore - Time To Heal
TTITLE14=Jeff Beck - Big Block
TTITLE15=Stevie Ray Vaughan and Double Trouble - Couldn't Stand The Weat
TTITLE15=her
EXTD=
EXTT0=
EXTT1=
EXTT2=
EXTT3=
EXTT4=
EXTT5=
EXTT6=
EXTT7=
EXTT8=
EXTT9=
EXTT10=
EXTT11=
EXTT12=
EXTT13=
EXTT14=
EXTT15=
PLAYORDER=
